<svg width="24" height="24" viewBox="0 0 24 24" fill="none" xmlns="http://www.w3.org/2000/svg">
<g opacity="0.7" clip-path="url(#clip0_267_215)">
<path d="M7.84007 22.5299C7.61194 22.3449 7.42736 22.1119 7.29947 21.8475C7.17157 21.583 7.10349 21.2937 7.10007 20.9999V18.8999H5.50007C5.04829 18.9198 4.59731 18.8454 4.17582 18.6816C3.75432 18.5178 3.37152 18.268 3.05176 17.9483C2.73199 17.6285 2.48225 17.2457 2.31841 16.8242C2.15457 16.4027 2.08021 15.9517 2.10007 15.4999V6.49995C2.08021 6.04816 2.15457 5.59719 2.31841 5.17569C2.48225 4.7542 2.73199 4.3714 3.05176 4.05163C3.37152 3.73187 3.75432 3.48213 4.17582 3.31829C4.59731 3.15444 5.04829 3.08009 5.50007 3.09995H18.5001C18.9519 3.08009 19.4028 3.15444 19.8243 3.31829C20.2458 3.48213 20.6286 3.73187 20.9484 4.05163C21.2681 4.3714 21.5179 4.7542 21.6817 5.17569C21.8456 5.59719 21.9199 6.04816 21.9001 6.49995V15.4999C21.9199 15.9517 21.8456 16.4027 21.6817 16.8242C21.5179 17.2457 21.2681 17.6285 20.9484 17.9483C20.6286 18.268 20.2458 18.5178 19.8243 18.6816C19.4028 18.8454 18.9519 18.9198 18.5001 18.8999H13.8401L10.1201 22.1599C9.85793 22.4994 9.47652 22.7265 9.05314 22.7952C8.62977 22.864 8.19611 22.7691 7.84007 22.5299ZM12.7701 17.4399C13.0243 17.2158 13.3511 17.0914 13.6901 17.0899H18.5001C18.7152 17.11 18.9321 17.0824 19.1353 17.009C19.3385 16.9357 19.5231 16.8185 19.6759 16.6657C19.8286 16.513 19.9458 16.3284 20.0192 16.1252C20.0925 15.9219 20.1201 15.7051 20.1001 15.4899V6.48995C20.1201 6.27483 20.0925 6.05794 20.0192 5.85472C19.9458 5.6515 19.8286 5.46693 19.6759 5.31416C19.5231 5.1614 19.3385 5.04418 19.1353 4.97086C18.9321 4.89753 18.7152 4.86991 18.5001 4.88995H5.50007C5.28403 4.86968 5.06619 4.89749 4.86217 4.97138C4.65816 5.04527 4.47303 5.16341 4.32008 5.31732C4.16712 5.47122 4.05014 5.65708 3.97752 5.86156C3.90491 6.06603 3.87845 6.28404 3.90007 6.49995V15.4999C3.88003 15.7151 3.90766 15.9319 3.98098 16.1352C4.0543 16.3384 4.17152 16.523 4.32429 16.6757C4.47705 16.8285 4.66162 16.9457 4.86484 17.019C5.06806 17.0924 5.28495 17.12 5.50007 17.0999H8.00007C8.70007 17.2999 8.70007 17.2999 8.90007 17.9999V20.8299L12.7701 17.4399Z" fill="#818C99"/>
</g>
<defs>
<clipPath id="clip0_267_215">
<rect width="24" height="24" fill="white"/>
</clipPath>
</defs>
</svg>
