<svg width="24" height="24" viewBox="0 0 24 24" fill="none" xmlns="http://www.w3.org/2000/svg">
<g opacity="0.7" clip-path="url(#clip0_267_210)">
<path d="M17.0001 2.90002C18.7002 2.90796 20.328 3.5889 21.5274 4.7939C22.7268 5.9989 23.4001 7.62987 23.4001 9.33002C23.4001 12.9 21.9701 14.69 15.9501 19.33L13.1701 21.49C12.8368 21.7487 12.427 21.8891 12.0051 21.8891C11.5832 21.8891 11.1734 21.7487 10.8401 21.49L8.0501 19.37C2.0001 14.69 0.600098 12.9 0.600098 9.33002C0.600079 7.62987 1.2734 5.9989 2.47278 4.7939C3.67216 3.5889 5.29996 2.90796 7.0001 2.90002C7.97082 2.92043 8.92446 3.1594 9.7901 3.59915C10.6557 4.03889 11.4111 4.66811 12.0001 5.44002C12.5891 4.66811 13.3444 4.03889 14.2101 3.59915C15.0757 3.1594 16.0294 2.92043 17.0001 2.90002ZM7.0001 4.70002C5.77735 4.70795 4.60739 5.19924 3.74557 6.06668C2.88375 6.93412 2.40007 8.10725 2.4001 9.33002C2.4001 12.15 3.5501 13.59 9.1601 17.96L11.9401 20.12C11.9574 20.133 11.9785 20.14 12.0001 20.14C12.0217 20.14 12.0428 20.133 12.0601 20.12L14.8401 18C20.4501 13.64 21.6001 12.2 21.6001 9.37002C21.6054 8.76116 21.4905 8.15724 21.2621 7.59283C21.0336 7.02843 20.6961 6.51462 20.2688 6.08084C19.8415 5.64705 19.3329 5.30181 18.772 5.06487C18.2111 4.82793 17.609 4.70395 17.0001 4.70002C15.4401 4.70002 14.0001 5.58002 12.7701 7.43002L12.0001 8.50002L11.2601 7.43002C10.0001 5.58002 8.5801 4.70002 7.0001 4.70002Z" fill="#818C99"/>
</g>
<defs>
<clipPath id="clip0_267_210">
<rect width="24" height="24" fill="white"/>
</clipPath>
</defs>
</svg>
