<svg width="24" height="24" viewBox="0 0 24 24" fill="none" xmlns="http://www.w3.org/2000/svg">
<g opacity="0.7" clip-path="url(#clip0_267_220)">
<path d="M12.1 7.86997V4.39997C12.1019 4.14938 12.1751 3.9045 12.311 3.69395C12.4469 3.4834 12.6399 3.3159 12.8675 3.21101C13.0951 3.10613 13.3479 3.0682 13.5962 3.10166C13.8446 3.13513 14.0783 3.2386 14.27 3.39997L23.21 11C23.4764 11.2268 23.6419 11.5501 23.67 11.8989C23.6981 12.2477 23.5866 12.5934 23.36 12.86L23.21 13.01L14.27 20.61C14.0783 20.7714 13.8446 20.8748 13.5962 20.9083C13.3479 20.9417 13.0951 20.9038 12.8675 20.7989C12.6399 20.6941 12.4469 20.5265 12.311 20.316C12.1751 20.1055 12.1019 19.8606 12.1 19.61V16.16C7.42001 16.27 4.10001 17.25 2.21001 19.03C2.02906 19.1975 1.79907 19.3024 1.55396 19.3292C1.30885 19.356 1.06161 19.3034 0.848708 19.179C0.635805 19.0546 0.468517 18.8651 0.371522 18.6384C0.274528 18.4117 0.252964 18.1599 0.310011 17.92C1.84001 11.56 5.82001 8.15997 12.1 7.86997ZM13.9 5.44997V9.64997H13C7.70001 9.64997 4.28001 11.9 2.61001 16.51C5.06001 15.06 8.53001 14.35 13 14.35H13.9V18.55L21.61 12L13.9 5.44997Z" fill="#818C99"/>
</g>
<defs>
<clipPath id="clip0_267_220">
<rect width="24" height="24" fill="white"/>
</clipPath>
</defs>
</svg>
